<?xml version="1.0" standalone="no"?>
<!DOCTYPE svg PUBLIC "-//W3C//DTD SVG 20010904//EN"
 "http://www.w3.org/TR/2001/REC-SVG-20010904/DTD/svg10.dtd">
<svg version="1.0" xmlns="http://www.w3.org/2000/svg"
 width="700.000000pt" height="700.000000pt" viewBox="0 0 700.000000 700.000000"
 preserveAspectRatio="xMidYMid meet">
<metadata>
Created by potrace 1.11, written by Peter Selinger 2001-2013
</metadata>
<g transform="translate(0.000000,700.000000) scale(0.100000,-0.100000)"
fill="#000000" stroke="none">
<path d="M3295 6869 c-82 -22 -159 -43 -170 -48 -11 -5 -73 -16 -138 -25 -332
-47 -651 -149 -988 -318 -109 -54 -201 -98 -206 -98 -5 0 -36 -11 -69 -24 -32
-13 -103 -40 -156 -60 l-97 -38 -103 -126 c-57 -70 -103 -132 -103 -139 0 -6
-64 -76 -141 -155 -257 -261 -452 -534 -605 -843 -32 -66 -65 -127 -73 -135
-24 -27 -186 -280 -178 -280 4 0 2 -4 -4 -8 -13 -8 -35 -335 -24 -340 4 -1 -1
-44 -11 -95 -42 -217 -54 -345 -54 -617 0 -267 8 -372 45 -585 10 -60 22 -155
25 -210 3 -55 8 -128 11 -162 5 -62 6 -63 32 -58 l27 5 -25 -10 c-13 -6 -26
-13 -28 -14 -2 -2 31 -57 74 -122 42 -66 114 -194 160 -285 186 -373 358 -618
639 -907 73 -75 144 -150 157 -167 13 -16 57 -70 98 -119 l73 -89 25 29 c13
16 21 22 17 14 -5 -8 -15 -23 -23 -33 -8 -9 -13 -19 -10 -22 3 -3 77 -33 164
-67 87 -34 181 -74 208 -91 333 -196 789 -350 1201 -407 44 -6 87 -14 95 -17
8 -4 83 -25 165 -48 l150 -41 6 40 6 41 1 -42 c1 -24 5 -43 8 -43 4 0 90 22
193 49 102 27 215 52 251 56 89 9 306 51 419 81 279 74 561 191 817 337 43 25
129 64 189 87 61 24 114 46 119 51 6 5 4 16 -5 27 -8 10 -4 8 8 -5 l21 -22 97
119 c53 65 131 149 172 187 178 159 418 451 563 684 71 114 172 306 226 429
16 36 60 114 98 173 l69 109 8 131 c5 73 19 188 33 258 89 445 84 951 -13
1369 -10 47 -23 147 -27 223 -3 75 -8 137 -10 137 -1 0 -14 -4 -28 -10 -35
-13 -33 -3 3 12 l28 13 -93 145 c-52 80 -116 190 -143 245 -159 322 -356 592
-635 870 -93 94 -218 228 -277 299 l-108 129 -158 59 c-87 32 -201 80 -253
107 -360 186 -820 325 -1170 356 -41 4 -144 24 -228 46 -84 21 -157 39 -162
39 -5 0 -11 -15 -13 -32 -4 -32 -4 -32 -5 5 -1 20 -5 37 -9 36 -5 0 -75 -18
-158 -40z m2165 -596 c0 -5 -10 -19 -21 -33 l-21 -25 18 33 c18 32 24 38 24
25z m-3950 -38 c14 -19 14 -19 -2 -6 -10 7 -18 18 -18 24 0 6 1 8 3 6 1 -2 9
-13 17 -24z m1915 -4 c-6 -4 -165 -115 -355 -246 l-345 -239 -380 -4 c-209 -2
-393 -2 -410 -1 -28 4 -26 7 50 55 392 251 817 396 1265 433 148 12 185 12
175 2z m372 -16 c342 -42 624 -130 931 -290 117 -61 299 -173 291 -179 -2 -1
-137 1 -299 5 -162 4 -352 8 -421 8 l-126 1 -324 231 c-178 127 -326 233 -328
235 -11 10 166 3 276 -11z m-24 -251 c166 -118 301 -218 300 -221 -2 -8 -602
-273 -617 -273 -16 0 -636 263 -636 269 1 10 624 439 638 440 7 1 149 -96 315
-215z m-2069 -670 c-78 -224 -146 -410 -151 -414 -4 -4 -147 -110 -318 -235
-170 -125 -316 -232 -322 -238 -10 -7 -10 0 1 29 163 456 473 895 841 1191 50
40 90 73 91 73 1 0 -63 -183 -142 -406z m1385 264 c168 -72 310 -134 314 -138
4 -4 -34 -10 -85 -14 -297 -22 -640 -141 -886 -309 -24 -16 -45 -27 -47 -25
-2 1 79 143 178 315 155 266 185 311 201 306 11 -3 157 -64 325 -135z m1226
-110 c83 -138 163 -273 179 -300 l28 -49 -58 37 c-225 144 -570 255 -848 272
l-111 7 320 142 c176 78 325 142 330 142 6 0 78 -113 160 -251z m706 227 c10
-7 242 -705 236 -711 -4 -4 -333 64 -588 122 l-69 16 -171 286 c-95 158 -174
291 -177 296 -5 9 754 0 769 -9z m185 -68 c356 -300 650 -714 808 -1140 l25
-68 -27 20 c-15 10 -164 123 -332 250 -168 127 -313 237 -322 244 -17 12 -272
777 -259 777 4 0 52 -38 107 -83z m-2585 -9 c-26 -46 -103 -177 -171 -293 -67
-115 -123 -211 -124 -212 -6 -6 -662 -153 -672 -151 -10 3 76 260 222 666 l26
72 384 0 384 0 -49 -82z m1178 -308 c616 -112 1129 -539 1357 -1130 119 -308
145 -675 74 -1018 -108 -515 -466 -977 -945 -1217 -704 -352 -1534 -218 -2082
337 -427 431 -605 1026 -487 1623 43 215 163 493 291 675 87 123 310 346 433
433 230 162 539 280 830 317 118 14 397 4 529 -20z m-1504 -292 c-73 -59 -226
-212 -288 -288 -115 -142 -240 -361 -298 -519 -12 -35 -24 -60 -26 -55 -4 14
-74 727 -71 729 4 4 691 163 708 164 8 1 -3 -13 -25 -31z m2703 -52 c162 -36
296 -67 300 -70 5 -6 -47 -656 -53 -664 -1 -2 -30 54 -64 124 -128 265 -282
460 -526 667 l-30 26 40 -10 c22 -5 172 -38 333 -73z m959 -573 l33 -28 -113
-353 c-63 -194 -117 -353 -121 -353 -4 0 -106 110 -227 245 -174 194 -219 251
-219 273 0 37 51 634 56 651 3 11 484 -343 591 -435z m-4367 87 c33 -339 33
-341 13 -363 -20 -22 -423 -488 -430 -496 -1 -2 -5 -2 -8 1 -9 9 -225 733
-223 745 3 13 593 453 607 453 4 0 23 -153 41 -340z m-1265 100 c13 -5 14 -9
5 -9 -8 0 -24 4 -35 9 -13 5 -14 9 -5 9 8 0 24 -4 35 -9z m5755 -296 c35 -120
68 -294 86 -444 22 -191 15 -527 -15 -712 -19 -118 -75 -360 -88 -381 -6 -10
-253 794 -253 823 0 17 244 790 248 785 1 -1 12 -33 22 -71z m-5073 -350 l122
-406 -121 -382 c-67 -209 -125 -385 -128 -389 -10 -11 -75 258 -97 403 -26
164 -26 606 0 770 20 129 85 410 95 410 4 0 62 -183 129 -406z m638 67 c-71
-281 -72 -630 -1 -910 13 -50 21 -91 17 -90 -9 1 -476 529 -476 539 0 9 477
561 481 557 1 -1 -8 -44 -21 -96z m4077 -416 c17 -22 18 -28 6 -43 -13 -17
-390 -455 -412 -480 -7 -7 -3 33 11 100 52 259 52 514 -2 773 -14 66 -25 121
-25 123 0 4 396 -440 422 -473z m48 -120 c0 -3 49 -168 110 -368 72 -239 106
-365 99 -372 -5 -5 -141 -107 -302 -226 -230 -170 -293 -212 -299 -200 -4 9
-20 159 -37 335 -29 303 -30 320 -13 340 53 68 428 496 435 496 4 0 7 -2 7 -5z
m-4366 -265 c208 -233 227 -258 222 -285 -3 -16 -17 -172 -32 -345 -15 -173
-28 -316 -29 -318 -4 -4 -608 456 -619 471 -5 8 34 146 104 367 110 348 119
375 125 368 1 -2 105 -118 229 -258z m387 -503 c62 -123 134 -236 216 -337 60
-73 205 -221 271 -275 18 -15 31 -29 29 -31 -2 -3 -100 17 -218 42 -118 26
-270 59 -339 73 l-125 27 2 40 c4 86 55 660 60 674 3 9 15 -12 29 -48 13 -34
47 -109 75 -165z m3494 -149 c17 -178 29 -326 26 -329 -6 -7 -619 -149 -641
-149 -6 0 24 30 66 67 102 89 220 224 306 353 68 101 198 350 198 379 0 8 3
11 6 8 4 -3 21 -152 39 -329z m-3893 -240 l197 -150 130 -391 c72 -215 130
-392 128 -393 -7 -7 -206 165 -297 256 -263 263 -485 606 -619 957 l-39 102
151 -116 c84 -63 241 -183 349 -265z m4604 248 c-174 -445 -481 -857 -854
-1149 l-61 -48 63 183 c175 500 227 643 238 655 25 24 652 483 656 479 2 -2
-17 -56 -42 -120z m-718 -430 c-2 -7 -59 -173 -128 -369 l-125 -357 -378 0
-378 0 32 58 c19 31 95 163 171 292 l137 235 328 77 c180 42 332 77 336 77 5
1 7 -5 5 -13z m-3260 -75 c172 -38 315 -71 317 -73 12 -12 355 -591 352 -594
-2 -2 -159 0 -348 6 -189 5 -365 10 -391 10 l-46 0 -118 353 c-64 193 -119
358 -122 365 -3 9 2 11 19 7 13 -3 165 -36 337 -74z m502 -135 c216 -132 538
-235 792 -253 49 -3 85 -9 81 -14 -9 -8 -626 -280 -629 -276 -15 23 -364 611
-364 614 0 3 12 -3 28 -13 15 -10 56 -36 92 -58z m1879 -158 c-61 -106 -136
-234 -165 -284 l-54 -92 -307 130 c-170 72 -312 134 -318 139 -5 5 11 9 39 9
27 0 96 7 155 15 243 36 482 122 706 253 28 17 52 29 53 27 2 -2 -47 -90 -109
-197z m-612 -280 c172 -73 313 -135 313 -139 0 -11 -631 -440 -644 -437 -7 2
-148 100 -314 218 -202 144 -298 218 -289 223 24 16 592 265 607 266 8 1 155
-59 327 -131z m-1285 -154 l266 -6 329 -235 c180 -129 333 -239 338 -245 7 -7
-25 -8 -105 -3 -495 29 -954 181 -1360 450 l-85 56 175 -5 c96 -3 295 -9 442
-12z m2538 11 c0 -11 -200 -136 -310 -194 -327 -171 -666 -269 -1045 -301 -77
-7 -151 -11 -165 -9 -20 3 42 51 333 251 l357 248 343 3 c188 1 375 3 415 5
39 1 72 0 72 -3z"/>
<path d="M3334 4693 c-128 -3 -143 -6 -160 -24 -18 -20 -19 -48 -22 -515 l-3
-494 -289 0 -289 0 -3 476 -3 476 -24 19 c-20 17 -40 19 -157 19 -121 0 -136
-2 -154 -20 -20 -20 -20 -33 -20 -1125 0 -1092 0 -1105 20 -1125 18 -18 33
-20 158 -20 128 0 140 2 158 21 18 20 19 45 22 490 l3 469 289 0 290 0 0 -484
c0 -316 4 -494 11 -514 18 -52 35 -55 396 -49 283 4 340 7 418 25 253 57 454
168 630 347 151 153 261 348 317 562 28 109 31 132 32 288 1 188 -12 272 -66
425 -134 380 -439 641 -853 732 -73 16 -136 20 -325 22 -129 2 -299 1 -376 -1z
m578 -354 c146 -31 313 -142 429 -286 101 -127 155 -241 185 -391 70 -360
-148 -792 -487 -966 -74 -38 -193 -75 -204 -64 -6 5 -10 760 -7 1256 2 396 4
462 17 462 7 0 38 -5 67 -11z"/>
</g>
</svg>
